<svg width="17" height="17" viewBox="0 0 17 17" fill="none" xmlns="http://www.w3.org/2000/svg">
<path d="M0.339691 0.339691C0.447097 0.232014 0.57469 0.146583 0.715163 0.0882932C0.855637 0.0300032 1.00623 0 1.15832 0C1.3104 0 1.461 0.0300032 1.60147 0.0882932C1.74194 0.146583 1.86954 0.232014 1.97694 0.339691L8.09582 6.46088L14.2147 0.339691C14.3222 0.232188 14.4498 0.146911 14.5903 0.0887309C14.7307 0.0305505 14.8813 0.000605375 15.0333 0.000605375C15.1853 0.000605375 15.3359 0.0305505 15.4764 0.0887309C15.6168 0.146911 15.7444 0.232188 15.8519 0.339691C15.9594 0.447195 16.0447 0.574819 16.1029 0.715279C16.1611 0.855739 16.191 1.00628 16.191 1.15832C16.191 1.31035 16.1611 1.46089 16.1029 1.60135C16.0447 1.74181 15.9594 1.86944 15.8519 1.97694L9.73075 8.09582L15.8519 14.2147C15.9594 14.3222 16.0447 14.4498 16.1029 14.5903C16.1611 14.7307 16.191 14.8813 16.191 15.0333C16.191 15.1853 16.1611 15.3359 16.1029 15.4764C16.0447 15.6168 15.9594 15.7444 15.8519 15.8519C15.7444 15.9594 15.6168 16.0447 15.4764 16.1029C15.3359 16.1611 15.1853 16.191 15.0333 16.191C14.8813 16.191 14.7307 16.1611 14.5903 16.1029C14.4498 16.0447 14.3222 15.9594 14.2147 15.8519L8.09582 9.73075L1.97694 15.8519C1.86944 15.9594 1.74181 16.0447 1.60135 16.1029C1.46089 16.1611 1.31035 16.191 1.15832 16.191C1.00628 16.191 0.855739 16.1611 0.715279 16.1029C0.574819 16.0447 0.447195 15.9594 0.339691 15.8519C0.232188 15.7444 0.146911 15.6168 0.0887309 15.4764C0.0305505 15.3359 0.000605375 15.1853 0.000605375 15.0333C0.000605375 14.8813 0.0305505 14.7307 0.0887309 14.5903C0.146911 14.4498 0.232188 14.3222 0.339691 14.2147L6.46088 8.09582L0.339691 1.97694C0.232014 1.86954 0.146583 1.74194 0.0882932 1.60147C0.0300032 1.461 0 1.3104 0 1.15832C0 1.00623 0.0300032 0.855637 0.0882932 0.715163C0.146583 0.57469 0.232014 0.447097 0.339691 0.339691Z" fill="#090F1A"/>
</svg>
