<svg width="41" height="41" viewBox="0 0 41 41" fill="none" xmlns="http://www.w3.org/2000/svg">
<circle cx="20.5" cy="20.5" r="20.5" fill="#3A66BD"/>
<path d="M24.5 21.25C24.3011 21.25 24.1103 21.329 23.9697 21.4697C23.829 21.6103 23.75 21.8011 23.75 22C23.75 22.1989 23.829 22.3897 23.9697 22.5303C24.1103 22.671 24.3011 22.75 24.5 22.75H26.75C26.9489 22.75 27.1397 22.671 27.2803 22.5303C27.421 22.3897 27.5 22.1989 27.5 22C27.5 21.8011 27.421 21.6103 27.2803 21.4697C27.1397 21.329 26.9489 21.25 26.75 21.25H24.5ZM11 12.25C11 11.6533 11.2371 11.081 11.659 10.659C12.081 10.2371 12.6533 10 13.25 10H25.8125C26.459 10 27.079 10.2568 27.5361 10.7139C27.9932 11.171 28.25 11.791 28.25 12.4375V13.192C29.561 13.6555 30.5 14.9058 30.5 16.375V26.125C30.5 27.0201 30.1444 27.8785 29.5115 28.5115C28.8786 29.1444 28.0201 29.5 27.125 29.5H14.375C13.4799 29.5 12.6215 29.1444 11.9885 28.5115C11.3556 27.8785 11 27.0201 11 26.125V12.4375H11.0075C11.0024 12.3751 10.9999 12.3126 11 12.25V12.25ZM27.125 14.5H12.5V26.125C12.5 26.6223 12.6975 27.0992 13.0492 27.4508C13.4008 27.8025 13.8777 28 14.375 28H27.125C27.6223 28 28.0992 27.8025 28.4508 27.4508C28.8025 27.0992 29 26.6223 29 26.125V16.375C29 15.8777 28.8025 15.4008 28.4508 15.0492C28.0992 14.6975 27.6223 14.5 27.125 14.5V14.5ZM26.75 12.4375C26.75 11.92 26.33 11.5 25.8125 11.5H13.25C13.0511 11.5 12.8603 11.579 12.7197 11.7197C12.579 11.8603 12.5 12.0511 12.5 12.25C12.5 12.4489 12.579 12.6397 12.7197 12.7803C12.8603 12.921 13.0511 13 13.25 13H26.75V12.4375Z" fill="#FBFCFF"/>
</svg>
