<svg width="228" height="58" viewBox="0 0 228 58" fill="none" xmlns="http://www.w3.org/2000/svg">
<path d="M0.166 44V0.278H4.324L22.846 30.707H20.011L38.533 0.278H42.691V44H36.769V10.673L38.155 11.051L23.539 35.054H19.381L4.765 11.051L6.088 10.673V44H0.166ZM65.6776 44.63C62.7376 44.63 60.0916 43.937 57.7396 42.551C55.3876 41.165 53.5186 39.296 52.1326 36.944C50.7466 34.55 50.0536 31.883 50.0536 28.943C50.0536 26.045 50.7466 23.441 52.1326 21.131C53.5186 18.779 55.3876 16.91 57.7396 15.524C60.0916 14.138 62.7376 13.445 65.6776 13.445C68.5756 13.445 71.2006 14.138 73.5526 15.524C75.9466 16.868 77.8366 18.716 79.2226 21.068C80.6086 23.42 81.3016 26.045 81.3016 28.943C81.3016 31.883 80.6086 34.55 79.2226 36.944C77.8366 39.296 75.9466 41.165 73.5526 42.551C71.2006 43.937 68.5756 44.63 65.6776 44.63ZM65.6776 39.149C67.5676 39.149 69.2476 38.708 70.7176 37.826C72.1876 36.944 73.3426 35.747 74.1826 34.235C75.0226 32.681 75.4426 30.917 75.4426 28.943C75.4426 27.011 75.0016 25.289 74.1196 23.777C73.2796 22.265 72.1246 21.089 70.6546 20.249C69.2266 19.367 67.5676 18.926 65.6776 18.926C63.7876 18.926 62.1076 19.367 60.6376 20.249C59.1676 21.089 58.0126 22.265 57.1726 23.777C56.3326 25.289 55.9126 27.011 55.9126 28.943C55.9126 30.917 56.3326 32.681 57.1726 34.235C58.0126 35.747 59.1676 36.944 60.6376 37.826C62.1076 38.708 63.7876 39.149 65.6776 39.149ZM108.858 44V26.549C108.858 24.281 108.144 22.412 106.716 20.942C105.288 19.472 103.44 18.737 101.172 18.737C99.6602 18.737 98.3162 19.073 97.1402 19.745C95.9642 20.417 95.0402 21.341 94.3682 22.517C93.6962 23.693 93.3602 25.037 93.3602 26.549L91.0292 25.226C91.0292 22.958 91.5332 20.942 92.5412 19.178C93.5492 17.414 94.9562 16.028 96.7622 15.02C98.5682 13.97 100.605 13.445 102.873 13.445C105.141 13.445 107.136 14.012 108.858 15.146C110.622 16.28 112.008 17.771 113.016 19.619C114.024 21.425 114.528 23.357 114.528 25.415V44H108.858ZM87.6902 44V14.075H93.3602V44H87.6902ZM122.268 44V14.075H127.938V44H122.268ZM125.103 8.09C124.053 8.09 123.192 7.754 122.52 7.082C121.848 6.368 121.512 5.486 121.512 4.436C121.512 3.428 121.848 2.588 122.52 1.916C123.192 1.202 124.053 0.844996 125.103 0.844996C126.153 0.844996 127.014 1.202 127.686 1.916C128.358 2.588 128.694 3.428 128.694 4.436C128.694 5.486 128.358 6.368 127.686 7.082C127.014 7.754 126.153 8.09 125.103 8.09ZM148.705 57.167C145.639 57.167 142.909 56.6 140.515 55.466C138.163 54.332 136.273 52.736 134.845 50.678L138.499 46.961C139.717 48.515 141.166 49.691 142.846 50.489C144.526 51.329 146.521 51.749 148.831 51.749C151.897 51.749 154.312 50.93 156.076 49.292C157.882 47.696 158.785 45.533 158.785 42.803V35.369L159.793 28.628L158.785 21.95V14.075H164.455V42.803C164.455 45.659 163.783 48.158 162.439 50.3C161.137 52.442 159.289 54.122 156.895 55.34C154.543 56.558 151.813 57.167 148.705 57.167ZM148.705 43.496C145.975 43.496 143.518 42.845 141.334 41.543C139.192 40.241 137.491 38.456 136.231 36.188C134.971 33.878 134.341 31.295 134.341 28.439C134.341 25.583 134.971 23.042 136.231 20.816C137.491 18.548 139.192 16.763 141.334 15.461C143.518 14.117 145.975 13.445 148.705 13.445C151.057 13.445 153.136 13.907 154.942 14.831C156.748 15.755 158.176 17.057 159.226 18.737C160.318 20.375 160.906 22.307 160.99 24.533V32.471C160.864 34.655 160.255 36.587 159.163 38.267C158.113 39.905 156.685 41.186 154.879 42.11C153.073 43.034 151.015 43.496 148.705 43.496ZM149.839 38.141C151.687 38.141 153.304 37.742 154.69 36.944C156.118 36.146 157.21 35.033 157.966 33.605C158.722 32.135 159.1 30.434 159.1 28.502C159.1 26.57 158.701 24.89 157.903 23.462C157.147 21.992 156.076 20.858 154.69 20.06C153.304 19.22 151.666 18.8 149.776 18.8C147.886 18.8 146.227 19.22 144.799 20.06C143.371 20.858 142.237 21.992 141.397 23.462C140.599 24.89 140.2 26.549 140.2 28.439C140.2 30.329 140.599 32.009 141.397 33.479C142.237 34.949 143.371 36.104 144.799 36.944C146.269 37.742 147.949 38.141 149.839 38.141ZM186.637 44.63C183.655 44.63 180.967 43.958 178.573 42.614C176.179 41.228 174.289 39.359 172.903 37.007C171.517 34.655 170.824 31.988 170.824 29.006C170.824 26.066 171.496 23.42 172.84 21.068C174.226 18.716 176.074 16.868 178.384 15.524C180.736 14.138 183.361 13.445 186.259 13.445C189.031 13.445 191.467 14.075 193.567 15.335C195.709 16.595 197.368 18.338 198.544 20.564C199.762 22.79 200.371 25.31 200.371 28.124C200.371 28.544 200.35 29.006 200.308 29.51C200.266 29.972 200.182 30.518 200.056 31.148H174.793V26.423H197.032L194.953 28.25C194.953 26.234 194.596 24.533 193.882 23.147C193.168 21.719 192.16 20.627 190.858 19.871C189.556 19.073 187.981 18.674 186.133 18.674C184.201 18.674 182.5 19.094 181.03 19.934C179.56 20.774 178.426 21.95 177.628 23.462C176.83 24.974 176.431 26.759 176.431 28.817C176.431 30.917 176.851 32.765 177.691 34.361C178.531 35.915 179.728 37.133 181.282 38.015C182.836 38.855 184.621 39.275 186.637 39.275C188.317 39.275 189.85 38.981 191.236 38.393C192.664 37.805 193.882 36.923 194.89 35.747L198.544 39.464C197.116 41.144 195.352 42.425 193.252 43.307C191.194 44.189 188.989 44.63 186.637 44.63ZM206.554 44V14.075H212.224V44H206.554ZM212.224 26.927L210.082 25.982C210.082 22.16 210.964 19.115 212.728 16.847C214.492 14.579 217.033 13.445 220.351 13.445C221.863 13.445 223.228 13.718 224.446 14.264C225.664 14.768 226.798 15.629 227.848 16.847L224.131 20.69C223.501 20.018 222.808 19.535 222.052 19.241C221.296 18.947 220.414 18.8 219.406 18.8C217.306 18.8 215.584 19.472 214.24 20.816C212.896 22.16 212.224 24.197 212.224 26.927Z" fill="#090F1A"/>
</svg>
