<svg width="19" height="21" viewBox="0 0 19 21" fill="none" xmlns="http://www.w3.org/2000/svg">
<path d="M1.00648 20.5319C1.08619 20.5422 1.16677 20.5422 1.24648 20.5319L5.24648 19.4701C5.42393 19.4253 5.58646 19.3299 5.71648 19.1941L18.0065 6.10184C18.379 5.70395 18.5881 5.16571 18.5881 4.60468C18.5881 4.04364 18.379 3.5054 18.0065 3.10751L16.4265 1.41922C16.2407 1.22177 16.0202 1.06514 15.7774 0.958265C15.5346 0.851395 15.2743 0.796387 15.0115 0.796387C14.7487 0.796387 14.4884 0.851395 14.2456 0.958265C14.0028 1.06514 13.7822 1.22177 13.5965 1.41922L1.30648 14.469C1.17727 14.6077 1.08423 14.7796 1.03648 14.968L0.0364831 19.2153C0.000540935 19.3527 -0.00897211 19.4963 0.00851131 19.6377C0.0259947 19.7791 0.0701166 19.9153 0.138245 20.0382C0.206373 20.1611 0.297111 20.2681 0.405048 20.3529C0.512984 20.4378 0.635907 20.4987 0.766483 20.5319C0.846193 20.5422 0.926773 20.5422 1.00648 20.5319ZM15.0065 2.91638L16.5965 4.60468L15.0065 6.29297L13.4265 4.60468L15.0065 2.91638ZM2.91648 15.7644L12.0065 6.10184L13.5965 7.79013L4.49648 17.4527L2.38648 18.0048L2.91648 15.7644Z" fill="#090F1A"/>
</svg>
