<svg width="19" height="21" viewBox="0 0 18 21" fill="none" xmlns="http://www.w3.org/2000/svg">
<path d="M13.5 3.18545V3.68545H14H17C17.1226 3.68545 17.2467 3.73689 17.3431 3.83925C17.4405 3.94263 17.5 4.08891 17.5 4.24727C17.5 4.40563 17.4405 4.55192 17.3431 4.65529C17.2467 4.75765 17.1226 4.80909 17 4.80909H16H15.5V5.30909V16.9891C15.5 17.7107 15.2298 18.3971 14.7573 18.8987C14.2859 19.3994 13.653 19.6745 13 19.6745H5C4.34697 19.6745 3.71414 19.3994 3.24267 18.8987C2.77024 18.3971 2.5 17.7107 2.5 16.9891V5.30909V4.80909H2H1C0.877399 4.80909 0.753284 4.75765 0.656883 4.65529C0.559525 4.55192 0.5 4.40563 0.5 4.24727C0.5 4.08891 0.559525 3.94263 0.656883 3.83925C0.753284 3.73689 0.877399 3.68545 1 3.68545H4H4.5V3.18545V2.12364C4.5 1.68367 4.66488 1.2673 4.94978 0.964798C5.23371 0.663308 5.61218 0.5 6 0.5H12C12.3878 0.5 12.7663 0.663308 13.0502 0.964798C13.3351 1.2673 13.5 1.68367 13.5 2.12364V3.18545ZM12.5 2.12364V1.62364H12H6H5.5V2.12364V3.18545V3.68545H6H12H12.5V3.18545V2.12364ZM14.5 5.30909V4.80909H14H4H3.5V5.30909V16.9891C3.5 17.394 3.65119 17.7878 3.9289 18.0827C4.20758 18.3786 4.59217 18.5509 5 18.5509H13C13.4078 18.5509 13.7924 18.3786 14.0711 18.0827C14.3488 17.7878 14.5 17.394 14.5 16.9891V5.30909Z" fill="#090F1A" stroke="#090F1A"/>
<path d="M6.5 7.93274H7.5V15.4273H6.5V7.93274ZM10.5 7.93274H11.5V15.4273H10.5V7.93274Z" fill="#090F1A" stroke="#090F1A"/>
</svg>
